PathFileType	4	(X/Y/Z)	D:\TRACE\spotREDO_2-26-24\spot_baseline_4-v60.trc
DataRate	CameraRate	NumFrames	NumMarkers	Units	OrigDataRate	OrigDataStartFrame	OrigNumFrames
100.00	100.00	      31	9	mm	100.00	2626	      7000
Frame#	Time	front left toe			Front right toe			aft left toe			aft right toe			Arm			FL body			FR body			AL Body			AR Body			
		X1	Y1	Z1	X2	Y2	Z2	X3	Y3	Z3	X4	Y4	Z4	X5	Y5	Z5	X6	Y6	Z6	X7	Y7	Z7	X8	Y8	Z8	X9	Y9	Z9	

2626	26.250	-238.73259	25.90302	-219.84366	268.60858	22.14228	-98.46623	-253.49118	22.40611	272.06647	208.48645	24.08211	337.67059	78.11022	810.98969	-306.59573	-4.66146	550.58710	-293.66324	149.83159	557.07050	-275.30530	-118.37549	558.55316	582.60541	29.22952	560.49268	602.36438	
2627	26.260	-238.81805	25.81519	-219.83301	268.49399	22.16606	-98.54672	-253.59622	22.46002	272.11179	208.49864	23.97864	337.57080	78.06738	811.06171	-306.83963	-5.18782	550.58557	-294.07700	149.63184	557.05920	-275.48996	-118.46898	558.85535	582.52625	29.07256	560.68695	602.12445	
2628	26.270	-238.90352	25.68815	-219.87988	268.50742	22.14359	-98.58901	-253.49840	22.38187	272.06882	208.50179	24.04064	337.48853	77.45256	810.99200	-307.39130	-5.42987	550.63068	-294.35785	149.35313	557.08154	-275.79263	-118.61904	559.09027	582.16931	29.07044	560.76239	601.80621	
2629	26.280	-238.94717	25.47057	-219.90001	268.56775	22.31543	-98.56139	-253.55586	22.19097	272.05884	208.47600	24.04231	337.46719	76.76607	810.93945	-308.06897	-5.64850	550.45764	-294.50815	148.88507	557.08392	-276.28064	-118.83955	559.24158	581.70715	28.96137	560.93610	601.48553	
2630	26.290	-239.08786	25.23160	-219.93025	268.48694	22.27549	-98.65208	-253.57466	22.05472	272.12393	208.44884	24.05821	337.43774	76.36665	810.82324	-308.25244	-6.01485	550.20917	-294.92920	148.52750	556.93304	-276.80417	-118.97031	559.30591	581.40680	28.89059	561.28180	600.92847	
2631	26.300	-239.23479	25.16584	-219.95680	268.34000	22.28401	-98.81594	-253.55461	22.06158	272.02658	208.43333	24.07592	337.37259	75.67322	810.56744	-308.69714	-6.45373	550.02026	-295.27209	148.07959	556.75433	-277.24478	-119.09808	559.45142	581.11456	28.86493	561.63000	600.80511	
2632	26.310	-239.28577	25.14024	-219.92336	268.28079	22.31381	-98.88044	-253.55228	22.05098	272.03732	208.43553	24.08347	337.37817	75.08440	810.42047	-309.42532	-6.98283	549.79755	-295.67957	147.71822	556.61469	-277.58282	-119.27120	559.80499	580.71667	28.54042	561.85260	600.62091	
2633	26.320	-239.34253	25.15874	-219.86583	268.44955	22.40205	-98.89315	-253.62296	22.08417	272.12061	208.43593	24.06869	337.34161	74.59448	810.25513	-309.91592	-7.59704	549.65302	-296.10916	147.04039	556.55518	-277.99963	-119.41011	560.02228	580.44781	28.19794	562.06049	599.90845	
2634	26.330	-239.38850	25.06289	-219.88605	268.44116	22.43333	-98.96725	-253.62776	22.05481	272.11896	208.42490	24.07860	337.30106	74.17036	810.04419	-310.34744	-7.89646	549.40204	-296.36526	146.62105	556.38995	-278.40689	-119.51405	560.19122	580.12372	28.25877	562.34686	599.32343	
2635	26.340	-239.39044	25.00950	-219.87534	268.42679	22.38743	-99.04265	-253.55386	21.99724	272.03058	208.39166	23.99858	337.23978	73.18637	809.83209	-311.23346	-8.33409	549.05463	-296.87509	146.24474	556.16724	-278.88895	-119.69625	560.32635	579.71362	28.10569	562.49695	598.91571	
2636	26.350	-239.38547	24.96506	-219.89417	268.41855	22.40792	-99.11412	-253.60983	21.92356	272.04639	208.38654	24.04757	337.20807	72.69276	809.61731	-311.68979	-8.85674	548.80536	-297.49194	145.59450	556.03735	-279.57010	-119.92403	560.46338	579.20459	27.86524	562.81799	598.44977	
2637	26.360	-239.46950	24.95110	-219.88422	268.35834	22.43562	-99.14351	-253.62744	21.94917	272.06525	208.36214	24.12146	337.17783	71.81203	809.37286	-312.38843	-9.26171	548.58044	-297.83374	145.21974	555.95282	-280.04526	-120.16312	560.68878	578.74048	27.46310	563.19318	598.08661	
2638	26.370	-239.46574	25.01624	-219.82742	268.32986	22.49542	-99.12047	-253.70938	22.01666	272.17694	208.34387	24.13238	337.11804	71.33748	809.22229	-313.05765	-9.87029	548.41864	-298.32523	145.00226	555.79840	-280.33627	-120.32523	560.85834	578.30103	27.16216	563.49719	597.39880	
2639	26.380	-239.60179	24.91003	-219.90160	268.31958	22.50677	-99.14787	-253.64191	22.06313	272.02203	208.32071	24.20570	337.04117	70.89094	809.06866	-313.70618	-10.24184	548.31177	-298.78909	144.13519	555.70282	-281.09113	-120.86450	561.29846	577.65875	26.80198	563.81055	597.00061	
2640	26.390	-239.66356	24.73415	-220.02753	268.28574	22.50166	-99.25571	-253.59274	21.99212	271.99646	208.28271	24.28626	336.96793	70.25699	808.88843	-314.32190	-10.79631	548.06427	-299.54706	143.76564	555.58954	-281.49988	-121.19418	561.25342	577.10913	26.63569	563.97803	596.46948	
2641	26.400	-239.68376	24.62338	-220.02785	268.22711	22.49211	-99.35857	-253.61116	21.82789	271.77502	208.24774	24.22581	336.90823	69.58862	808.64069	-315.22516	-11.00047	547.75848	-299.94308	143.42674	555.43579	-282.16522	-121.51593	561.29041	576.65588	26.16161	564.19031	595.88489	
2642	26.410	-239.61267	24.64984	-220.03221	268.25375	22.52295	-99.35119	-253.69012	21.79746	271.99185	208.23943	24.27818	336.88177	69.22787	808.46301	-315.67014	-11.35356	547.39154	-300.37476	142.94913	555.39758	-282.86475	-122.00571	561.46063	575.94220	25.62811	564.55048	595.17554	
2643	26.420	-239.63588	24.68916	-220.03596	268.21219	22.55802	-99.30190	-253.66884	21.84073	272.02661	208.24757	24.28237	336.88428	68.49091	808.40350	-316.44080	-11.77435	547.29742	-301.15472	142.61700	555.34460	-283.34558	-122.37229	561.55054	575.42560	25.02421	564.75568	594.59100	
2644	26.430	-239.63116	24.73971	-220.04257	268.21130	22.62863	-99.26701	-253.66310	21.89207	272.01483	208.24063	24.36358	336.90833	68.14404	808.27252	-316.99796	-11.94567	547.29211	-301.64398	142.54135	555.25897	-283.67886	-122.88915	561.81067	574.80072	24.19168	564.98260	593.53229	
2645	26.440	-239.63419	24.74780	-220.03932	268.20450	22.58889	-99.27670	-253.67856	21.85024	272.01474	208.24011	24.36796	336.89502	67.78874	808.09039	-317.68927	-12.24244	547.07642	-302.24692	142.39340	555.22070	-284.37793	-123.36786	561.83936	574.30316	23.45385	564.93597	593.04840	
2646	26.450	-239.61394	24.62510	-220.08157	268.19296	22.58238	-99.31628	-253.72090	21.69827	271.97318	208.17363	24.39215	336.82785	67.41701	808.09723	-318.41071	-12.51988	546.89520	-302.85788	141.83807	555.15393	-285.15918	-124.05704	561.85382	573.47284	22.64972	564.98193	592.41302	
2647	26.460	-239.64105	24.50850	-220.13969	268.14777	22.49207	-99.49657	-253.78537	21.55508	271.93509	208.14752	24.39181	336.79138	67.11675	808.01044	-318.99524	-12.87787	546.80994	-303.64740	141.61946	555.13306	-285.49924	-124.72256	561.71600	572.74786	21.41742	564.86023	590.87683	
2648	26.470	-239.66090	24.54312	-220.12605	268.11661	22.59568	-99.46570	-253.79692	21.48974	271.96945	208.11658	24.48108	336.79004	66.75572	808.14001	-319.57892	-13.09338	546.84821	-304.10605	141.41968	555.19446	-285.94107	-125.19949	561.73639	572.30756	20.86381	564.87115	590.73016	
2649	26.480	-239.58665	24.60349	-220.13844	268.13510	22.69617	-99.45490	-253.78801	21.57317	271.97345	208.12384	24.53059	336.80792	66.41520	808.30750	-320.28116	-13.53006	547.09253	-304.89661	140.98242	555.46527	-286.79230	-125.90617	561.64685	571.47321	22.03316	565.17181	591.29498	
2650	26.490	-239.57915	24.56823	-220.15849	268.12424	22.75464	-99.41721	-253.77715	21.59405	271.92099	208.07108	24.58747	336.79413	65.82349	808.33765	-320.86496	-13.99155	547.12659	-305.64203	140.62825	555.42279	-287.43863	-126.46850	561.61121	570.81897	21.30124	565.17621	590.51465	
2651	26.500	-239.61064	24.48166	-220.22566	268.09335	22.73732	-99.50368	-253.78992	21.51742	271.91678	208.08456	24.58630	336.77045	65.27433	808.38800	-321.41284	-14.26762	547.09271	-306.06830	140.37956	555.34155	-287.84570	-127.27869	561.35602	570.02673	20.69713	565.01886	590.00696	
2652	26.510	-239.61014	24.38635	-220.28021	268.07608	22.67011	-99.61668	-253.84491	21.37811	271.90823	208.05806	24.61803	336.71033	64.83428	808.48511	-321.98203	-14.79949	547.17908	-306.97357	139.74394	555.44794	-288.70831	-127.84599	561.32367	569.40082	20.18493	564.89307	589.43201	
2653	26.520	-239.62721	24.29405	-220.35042	268.13696	22.66837	-99.65626	-253.90938	21.29861	271.91937	208.07501	24.58194	336.69952	64.46426	808.44092	-322.87793	-15.23738	547.22406	-307.73102	139.25720	555.52576	-289.56940	-128.35732	561.19537	568.59296	19.55814	564.61249	588.45477	
2654	26.530	-239.69234	24.29962	-220.35474	268.12173	22.78415	-99.58423	-253.94330	21.28180	271.92487	207.97836	24.66850	336.64801	63.95729	808.60974	-323.57718	-15.59271	547.14276	-308.26221	138.76942	555.64923	-290.10428	-129.01064	561.20990	567.74591	18.76227	564.60962	587.85461	
2655	26.540	-239.77130	24.31984	-220.35873	268.04807	22.81596	-99.56760	-253.98083	21.21792	271.88528	208.00815	24.68835	336.66949	63.42992	808.60223	-324.20303	-16.28945	547.37970	-309.30020	138.01442	555.67090	-291.03220	-129.95355	561.40369	566.92035	18.23709	564.52509	586.90955	
2656	26.550	-239.77237	24.27604	-220.45396	267.95053	22.85111	-99.62281	-254.03386	21.16490	271.84399	207.96664	24.72765	336.63290	63.28806	808.59479	-324.81094	-16.82097	547.35876	-309.96268	137.81306	555.70203	-291.66400	-130.27928	561.07794	566.18079	17.75779	564.61353	586.16846	
